<?xml version="1.0" standalone="no"?>
<!DOCTYPE svg PUBLIC "-//W3C//DTD SVG 20010904//EN"
 "http://www.w3.org/TR/2001/REC-SVG-20010904/DTD/svg10.dtd">
<svg version="1.0" xmlns="http://www.w3.org/2000/svg"
 width="100.000000pt" height="100.000000pt" viewBox="0 0 100.000000 100.000000"
 preserveAspectRatio="xMidYMid meet">
<metadata>
Created by potrace 1.11, written by Peter Selinger 2001-2013
</metadata>
<g transform="translate(0.000000,100.000000) scale(0.100000,-0.100000)"
fill="#000000" stroke="none">
<path d="M415 768 c-30 -11 -79 -42 -103 -65 -13 -12 -27 -17 -45 -14 -32 5
-107 -65 -107 -101 0 -10 -18 -35 -39 -56 -60 -57 -74 -138 -36 -212 21 -40
80 -88 117 -95 18 -3 164 -5 325 -3 l291 3 39 31 c101 82 106 207 10 291 -20
18 -51 35 -70 38 -26 5 -38 16 -57 51 -59 112 -209 173 -325 132z m196 -82
c43 -29 82 -78 96 -121 8 -25 16 -31 49 -36 53 -7 81 -24 100 -61 21 -41 20
-89 -2 -127 -34 -57 -50 -60 -364 -58 -268 2 -287 3 -312 22 -70 52 -65 160 8
206 25 15 34 28 34 48 0 35 31 64 68 63 19 0 38 10 61 33 64 66 186 80 262 31z"/>
<path d="M382 548 c-7 -7 -8 -17 -1 -30 12 -22 32 -23 49 -3 23 28 -21 60 -48
33z"/>
<path d="M566 544 c-7 -19 10 -44 30 -44 20 0 36 34 22 48 -17 17 -45 15 -52
-4z"/>
<path d="M383 429 c-31 -31 32 -79 112 -84 42 -2 112 23 126 47 20 32 -18 53
-58 33 -36 -19 -90 -19 -127 0 -34 18 -39 18 -53 4z"/>
</g>
</svg>
